# File exported by Houdini 16.5.439 (www.sidefx.com)
# 24 points
# 132 vertices
# 44 primitives
# Bounds: [-2, -0.125, -2] to [2, 0.125, 2]
g 
v 2 -0.125 -2
v 2 0.125 -2
v -2 0.125 -2
v -2 -0.125 -2
v -2 0.125 2
v -2 -0.125 2
v 2 0.125 -1
v 2 -0.125 -1
v -1 0.125 2
v -1 -0.125 2
v 0.333288908 -0.125 -0.494408607
v 0.851949453 -0.125 -0.771638393
v 1.414729 -0.125 -0.942355633
v -0.942355871 -0.125 1.41472912
v -0.77163887 -0.125 0.851950169
v -0.494409084 -0.125 0.333289385
v -0.121320248 -0.125 -0.121320248
v 1.414729 0.125 -0.942355633
v 0.851949453 0.125 -0.771638393
v 0.333288908 0.125 -0.494408607
v -0.121320248 0.125 -0.121320248
v -0.494409084 0.125 0.333289385
v -0.77163887 0.125 0.851950169
v -0.942355871 0.125 1.41472912
vt 0 0.640483379 0
vt 0.483383715 0.670694888 0
vt 0 0.670694888 0
vt 0 0.5 0
vt 0.483383715 0.530211508 0
vt 0 0.530211508 0
vt 0.362537801 0.623867095 0
vt 0.483383715 0.593655586 0
vt 0.483383715 0.623867095 0
vt 0 0.577039242 0
vt 0.120845929 0.546827793 0
vt 0.120845929 0.577039242 0
vt 0.5 0.483383715 0
vt 0.627812028 0.412656128 0
vt 0.620845914 0.483383715 0
vt 0.120845929 0 0
vt 0 0.483383715 0
vt 0 0 0
vt 1 0.476426363 1
vt 0.96875 0.462537467 0.999999881
vt 1 0.462537467 1
vt 0.96875 0.476426363 1
vt 0.9375 0.462537467 1
vt 0.96875 0.462537467 0.999999881
vt 0.90625 0.462537467 1
vt 0.9375 0.476426363 1
vt 0.90625 0.476426363 1
vt 0.875 0.462537467 0.999999881
vt 0.90625 0.476426363 1
vt 0.875 0.476426363 1
vt 0.84375 0.476426363 1
vt 0.875 0.462537467 0.999999881
vt 0.875 0.476426363 1
vt 0.8125 0.476426363 1
vt 0.84375 0.462537467 1
vt 0.84375 0.476426363 1
vt 0.78125 0.476426363 1
vt 0.8125 0.462537467 1
vt 0.8125 0.476426363 1
vt 0.75 0.462537467 1
vt 0.78125 0.476426363 1
vt 0.75 0.476426363 1
vt 0.78125 0.476426363 1
vt 0.75 0.462537467 1
vt 0.78125 0.462537467 1
vt 0.8125 0.462537467 1
vt 0.78125 0.476426363 1
vt 0.78125 0.462537467 1
vt 0.84375 0.462537467 1
vt 0.8125 0.476426363 1
vt 0.8125 0.462537467 1
vt 0.875 0.462537467 0.999999881
vt 0.84375 0.476426363 1
vt 0.84375 0.462537467 1
vt 0.90625 0.476426363 1
vt 0.875 0.462537467 0.999999881
vt 0.90625 0.462537467 1
vt 0.9375 0.476426363 1
vt 0.90625 0.462537467 1
vt 0.9375 0.462537467 1
vt 0.9375 0.462537467 1
vt 0.96875 0.476426363 1
vt 0.9375 0.476426363 1
vt 0.96875 0.462537467 0.999999881
vt 1 0.476426363 1
vt 0.96875 0.476426363 1
vt 0.483383715 0.362537801 0
vt 0.483383715 0.483383715 0
vt 0.412656069 0.355571687 0
vt 0.412656069 0.355571687 0
vt 0.483383715 0.483383715 0
vt 0.344646484 0.334941208 0
vt 0.344646484 0.334941208 0
vt 0.483383715 0.483383715 0
vt 0.281968474 0.301439136 0
vt 0.281968474 0.301439136 0
vt 0.483383715 0.483383715 0
vt 0.227030799 0.256352901 0
vt 0.227030799 0.256352901 0
vt 0.483383715 0.483383715 0
vt 0 0.483383715 0
vt 0.227030799 0.256352901 0
vt 0 0.483383715 0
vt 0.181944534 0.201415196 0
vt 0.181944534 0.201415196 0
vt 0 0.483383715 0
vt 0.148442432 0.138737142 0
vt 0.148442432 0.138737142 0
vt 0 0.483383715 0
vt 0.127811983 0.0707276016 0
vt 0.127811983 0.0707276016 0
vt 0 0.483383715 0
vt 0.120845929 0 0
vt 0.781968474 0.181944594 0
vt 0.727030814 0.227030799 0
vt 0.983383715 0 0
vt 0.781968474 0.181944594 0
vt 0.983383715 0 0
vt 0.844646454 0.148442492 0
vt 0.844646454 0.148442492 0
vt 0.983383715 0 0
vt 0.912656069 0.127812013 0
vt 0.912656069 0.127812013 0
vt 0.983383715 0 0
vt 0.983383656 0.120845929 0
vt 0.983383715 0 0
vt 0.727030814 0.227030799 0
vt 0.5 0 0
vt 0.5 0 0
vt 0.727030814 0.227030799 0
vt 0.681944489 0.281968534 0
vt 0.5 0 0
vt 0.681944489 0.281968534 0
vt 0.5 0.483383715 0
vt 0.5 0.483383715 0
vt 0.681944489 0.281968534 0
vt 0.648442447 0.344646573 0
vt 0.5 0.483383715 0
vt 0.648442447 0.344646573 0
vt 0.627812028 0.412656128 0
vt 0.120845929 0.546827793 0
vt 0 0.577039242 0
vt 0 0.546827793 0
vt 0.483383715 0.593655586 0
vt 0.362537801 0.623867095 0
vt 0.362537801 0.593655586 0
vt 0.483383715 0.530211508 0
vt 0 0.5 0
vt 0.483383715 0.5 0
vt 0.483383715 0.670694888 0
vt 0 0.640483379 0
vt 0.483383715 0.640483379 0
vn 0 0 -1
vn 0 0 -1
vn 0 0 -1
vn -1 0 0
vn -1 0 0
vn -1 0 0
vn 1 0 0
vn 1 0 0
vn 1 0 0
vn 0 0 1
vn 0 0 1
vn 0 0 1
vn 0 -1 0
vn 0 -1 0
vn 0 -1 0
vn 0 0.99999994 0
vn 0 0.99999994 0
vn 0 1 0
vn 0.0980174989 0 0.99518472
vn 0.195090443 0 0.980785251
vn 0.0980174914 0 0.99518466
vn 0.195090473 0 0.980785251
vn 0.382683367 0 0.923879623
vn 0.195090443 0 0.980785251
vn 0.555570364 0 0.831469595
vn 0.382683367 0 0.923879623
vn 0.555570424 0 0.831469595
vn 0.707106709 0 0.707106829
vn 0.555570424 0 0.831469595
vn 0.707106769 0 0.707106888
vn 0.831469595 0 0.555570304
vn 0.707106709 0 0.707106829
vn 0.707106769 0 0.707106888
vn 0.923879623 0 0.382683218
vn 0.831469476 0 0.555570304
vn 0.831469595 0 0.555570304
vn 0.98078531 0 0.195090204
vn 0.923879623 0 0.382683218
vn 0.923879623 0 0.382683218
vn 0.99518472 0 0.0980171114
vn 0.98078531 0 0.195090204
vn 0.99518472 -0 0.0980170891
vn 0.98078531 0 0.195090204
vn 0.99518472 0 0.0980171114
vn 0.98078531 0 0.195090204
vn 0.923879623 0 0.382683218
vn 0.98078531 0 0.195090204
vn 0.98078531 0 0.195090204
vn 0.831469476 0 0.555570304
vn 0.923879623 0 0.382683218
vn 0.923879623 0 0.382683218
vn 0.707106709 0 0.707106829
vn 0.831469595 0 0.555570304
vn 0.831469476 0 0.555570304
vn 0.555570424 0 0.831469595
vn 0.707106709 0 0.707106829
vn 0.555570364 0 0.831469595
vn 0.382683367 0 0.923879623
vn 0.555570364 0 0.831469595
vn 0.382683367 0 0.923879623
vn 0.382683367 0 0.923879623
vn 0.195090473 0 0.980785251
vn 0.382683367 0 0.923879623
vn 0.195090443 0 0.980785251
vn 0.0980174989 0 0.99518472
vn 0.195090473 0 0.980785251
vn 0 1 0
vn 0 1 0
vn 0 1 0
vn 0 1 0
vn 0 1 0
vn 0 1 0
vn 0 1 0
vn 0 1 0
vn 0 1 0
vn 0 1 0
vn 0 1 0
vn 0 1 0
vn 0 1 0
vn 0 1 0
vn 0 0.99999994 0
vn 0 1 0
vn 0 0.99999994 0
vn 0 0.99999994 0
vn 0 0.99999994 0
vn 0 0.99999994 0
vn 0 1 0
vn 0 1 0
vn 0 0.99999994 0
vn 0 1 0
vn 0 1 0
vn 0 0.99999994 0
vn 0 0.99999994 0
vn 0 -1 0
vn 0 -1 0
vn 0 -1 0
vn 0 -1 0
vn 0 -1 0
vn 0 -1 0
vn 0 -1 0
vn 0 -1 0
vn 0 -1 0
vn 0 -1 0
vn 0 -1 0
vn 0 -1 0
vn 0 -1 0
vn 0 -1 0
vn 0 -1 0
vn 0 -1 0
vn 0 -1 0
vn 0 -0.99999994 0
vn 0 -1 0
vn 0 -0.99999994 0
vn 0 -1 0
vn 0 -1 0
vn 0 -0.99999994 0
vn 0 -1 0
vn 0 -1 0
vn 0 -1 0
vn 0 -1 0
vn 0 0 1
vn 0 0 1
vn 0 0 1
vn 1 0 0
vn 1 0 0
vn 1 0 0
vn -1 0 0
vn -1 0 0
vn -1 0 0
vn 0 0 -1
vn 0 0 -1
vn 0 0 -1
g 
f 1/1/1 3/2/2 2/3/3
f 4/4/4 5/5/5 3/6/6
f 7/7/7 1/8/8 2/9/9
f 5/10/10 10/11/11 9/12/12
f 6/13/13 14/14/14 10/15/15
f 9/16/16 3/17/17 5/18/18
f 7/19/19 13/20/20 8/21/21
f 18/22/22 12/23/23 13/24/24
f 11/25/25 19/26/26 20/27/27
f 17/28/28 20/29/29 21/30/30
f 22/31/31 17/32/32 21/33/33
f 23/34/34 16/35/35 22/36/36
f 24/37/37 15/38/38 23/39/39
f 10/40/40 24/41/41 9/42/42
f 24/43/43 10/44/44 14/45/45
f 15/46/46 24/47/47 14/48/48
f 16/49/49 23/50/50 15/51/51
f 17/52/52 22/53/53 16/54/54
f 20/55/55 17/56/56 11/57/57
f 19/58/58 11/59/59 12/60/60
f 12/61/61 18/62/62 19/63/63
f 13/64/64 7/65/65 18/66/66
f 7/67/67 2/68/68 18/69/69
f 18/70/70 2/71/71 19/72/72
f 19/73/73 2/74/74 20/75/75
f 20/76/76 2/77/77 21/78/78
f 21/79/79 2/80/80 3/81/81
f 21/82/82 3/83/83 22/84/84
f 22/85/85 3/86/86 23/87/87
f 23/88/88 3/89/89 24/90/90
f 24/91/91 3/92/92 9/93/93
f 11/94/94 17/95/95 1/96/96
f 11/97/97 1/98/98 12/99/99
f 12/100/100 1/101/101 13/102/102
f 13/103/103 1/104/104 8/105/105
f 1/106/106 17/107/107 4/108/108
f 4/109/109 17/110/110 16/111/111
f 4/112/112 16/113/113 6/114/114
f 6/115/115 16/116/116 15/117/117
f 6/118/118 15/119/119 14/120/120
f 10/121/121 5/122/122 6/123/123
f 1/124/124 7/125/125 8/126/126
f 5/127/127 4/128/128 6/129/129
f 3/130/130 1/131/131 4/132/132
