# File exported by Houdini 16.5.439 (www.sidefx.com)
# 14 points
# 72 vertices
# 24 primitives
# Bounds: [-2, -0.125, -2] to [2, 0.125, 2]
g 
v 2 -0.125 -2
v 2 0.125 -2
v -2 0.125 -2
v -2 -0.125 -2
v 2 -0.125 2
v 2 0.125 2
v 0.121320248 0.125 2
v 0.121320248 -0.125 2
v -2 0.125 -0.121320248
v -2 -0.125 -0.121320248
v -1 -0.125 -1.12132025
v 1.12132025 -0.125 1
v 1.12132025 0.125 1
v -1 0.125 -1.12132025
vt 0 0.640483379 0
vt 0.483383715 0.670694888 0
vt 0 0.670694888 0
vt 0 0.593655586 0
vt 0.483383715 0.623867095 0
vt 0 0.623867095 0
vt 0.256352901 0.577039242 0
vt 0.483383715 0.546827793 0
vt 0.483383715 0.577039242 0
vt 0 0.5 0
vt 0.227030799 0.530211508 0
vt 0 0.530211508 0
vt 0.877198875 0.362537801 0
vt 0.983383715 0.483383715 0
vt 0.756352901 0.483383715 0
vt 0.120845929 0.377198815 0
vt 0 0.483383715 0
vt 0 0.256352901 0
vt 0.353200316 0.655591309 0
vt 0.240042955 0.683880687 0
vt 0.353200316 0.683880687 0
vt 0 0.655591369 0
vt 0.240042955 0.683880687 0
vt 0.240042955 0.655591369 0
vt 0.866928518 0.683880687 0
vt 0.98008585 0.655591369 0
vt 0.866928518 0.655591369 0
vt 0.98008585 0.655591369 0
vt 0.866928518 0.683880687 0
vt 0.98008585 0.683880687 0
vt 0.240042955 0.683880687 0
vt 0 0.655591369 0
vt -2.66501215e-17 0.683880687 0
vt 0.240042955 0.683880687 0
vt 0.353200316 0.655591309 0
vt 0.240042955 0.655591369 0
vt 0.256352901 0 0
vt 0.483383715 0 0
vt 0.377198815 0.120845929 0
vt 0.377198815 0.120845929 0
vt 0.483383715 0 0
vt 0.483383715 0.483383715 0
vt 0.377198815 0.120845929 0
vt 0.483383715 0.483383715 0
vt 0.120845929 0.377198815 0
vt 0.120845929 0.377198815 0
vt 0.483383715 0.483383715 0
vt 0 0.483383715 0
vt 0.620845914 0.10618487 0
vt 0.5 0.227030799 0
vt 0.5 0 0
vt 0.620845914 0.10618487 0
vt 0.5 0 0
vt 0.983383715 0 0
vt 0.620845914 0.10618487 0
vt 0.983383715 0 0
vt 0.877198875 0.362537801 0
vt 0.877198875 0.362537801 0
vt 0.983383715 0 0
vt 0.983383715 0.483383715 0
vt 0.227030799 0.530211508 0
vt 0 0.5 0
vt 0.227030799 0.5 0
vt 0.483383715 0.546827793 0
vt 0.256352901 0.577039242 0
vt 0.256352901 0.546827793 0
vt 0.483383715 0.623867095 0
vt 0 0.593655586 0
vt 0.483383715 0.593655586 0
vt 0.483383715 0.670694888 0
vt 0 0.640483379 0
vt 0.483383715 0.640483379 0
vn 0 0 -1
vn 0 0 -1
vn 0 0 -1
vn 1 0 0
vn 1 0 0
vn 1 0 0
vn 0 0 1
vn 0 0 1
vn 0 0 1
vn -1 0 0
vn -1 0 0
vn -1 0 0
vn 0 -1 0
vn 0 -1 0
vn 0 -1 0
vn 0 1 0
vn 0 1 0
vn 0 1 0
vn 0.707106769 0 0.707106769
vn 0.707106769 0 0.707106769
vn 0.707106769 -0 0.707106769
vn -0.707106829 -0 0.707106829
vn -0.707106829 -0 0.707106829
vn -0.707106829 -0 0.707106829
vn -0.707106769 0 -0.707106769
vn -0.707106769 0 -0.707106769
vn -0.707106769 -0 -0.707106769
vn -0.707106769 0 -0.707106769
vn -0.707106769 0 -0.707106769
vn -0.707106769 0 -0.707106769
vn -0.707106829 -0 0.707106829
vn -0.707106829 -0 0.707106829
vn -0.707106829 -0 0.707106829
vn 0.707106769 0 0.707106769
vn 0.707106769 0 0.707106769
vn 0.707106769 0 0.707106769
vn 0 1 0
vn 0 1 0
vn 0 1 0
vn 0 1 0
vn 0 1 0
vn 0 1 0
vn 0 1 0
vn 0 1 0
vn 0 1 0
vn 0 1 0
vn 0 1 0
vn 0 1 0
vn 0 -1 0
vn 0 -1 0
vn 0 -1 0
vn 0 -1 0
vn 0 -1 0
vn 0 -1 0
vn 0 -1 0
vn 0 -1 0
vn 0 -1 0
vn 0 -1 0
vn 0 -1 0
vn 0 -1 0
vn -1 0 0
vn -1 0 0
vn -1 0 0
vn 0 0 1
vn 0 0 1
vn 0 0 1
vn 1 0 0
vn 1 0 0
vn 1 0 0
vn 0 0 -1
vn 0 0 -1
vn 0 0 -1
g 
f 1/1/1 3/2/2 2/3/3
f 5/4/4 2/5/5 6/6/6
f 7/7/7 5/8/8 6/9/9
f 4/10/10 9/11/11 3/12/12
f 12/13/13 5/14/14 8/15/15
f 14/16/16 3/17/17 9/18/18
f 10/19/19 14/20/20 9/21/21
f 12/22/22 14/23/23 11/24/24
f 7/25/25 12/26/26 8/27/27
f 12/28/28 7/29/29 13/30/30
f 14/31/31 12/32/32 13/33/33
f 14/34/34 10/35/35 11/36/36
f 7/37/37 6/38/38 13/39/39
f 13/40/40 6/41/41 2/42/42
f 13/43/43 2/44/44 14/45/45
f 14/46/46 2/47/47 3/48/48
f 11/49/49 10/50/50 4/51/51
f 11/52/52 4/53/53 1/54/54
f 11/55/55 1/56/56 12/57/57
f 12/58/58 1/59/59 5/60/60
f 9/61/61 4/62/62 10/63/63
f 5/64/64 7/65/65 8/66/66
f 2/67/67 5/68/68 1/69/69
f 3/70/70 1/71/71 4/72/72
