# File exported by Houdini 16.5.439 (www.sidefx.com)
# 24 points
# 132 vertices
# 44 primitives
# Bounds: [-2, -0.125, -2] to [2, 0.125, 2]
g 
v 2 -0.125 -2
v 2 0.125 -2
v -2 0.125 -2
v -2 -0.125 -2
v -2 0.125 2
v -2 -0.125 2
v 2 0.125 1
v 1.80490971 0.125 1.01921475
v 1.61731648 0.125 1.0761205
v 1.44442964 0.125 1.16853046
v 1.29289317 0.125 1.29289317
v 1.16853034 0.125 1.44442987
v 1.07612038 0.125 1.61731672
v 1.01921463 0.125 1.80490971
v 1 0.125 2
v 2 -0.125 1
v 1 -0.125 2
v 1.29289317 -0.125 1.29289317
v 1.44442964 -0.125 1.16853046
v 1.61731648 -0.125 1.0761205
v 1.80490971 -0.125 1.01921475
v 1.01921463 -0.125 1.80490971
v 1.07612038 -0.125 1.61731672
v 1.16853034 -0.125 1.44442987
vt 0 0.640483379 0
vt 0.483383715 0.670694888 0
vt 0 0.670694888 0
vt 0 0.5 0
vt 0.483383715 0.530211508 0
vt 0 0.530211508 0
vt 0.483383715 0.483383715 0
vt 0.459807843 0.118523903 0
vt 0.483383715 0.120845929 0
vt 0.120845929 0.623867095 0
vt 0.483383715 0.593655586 0
vt 0.483383715 0.623867095 0
vt 0.362537801 0.577039242 0
vt 0 0.546827793 0
vt 0.362537801 0.546827793 0
vt 0.983383715 0 0
vt 0.5 0.483383715 0
vt 0.5 0 0
vt 0.96875 0.490315259 0.99999994
vt 1 0.448648632 1
vt 1 0.490315259 1
vt 0.9375 0.490315259 1
vt 0.96875 0.448648632 0.99999994
vt 0.96875 0.490315259 0.99999994
vt 0.90625 0.490315259 1
vt 0.9375 0.448648632 1
vt 0.9375 0.490315259 1
vt 0.875 0.448648632 0.99999994
vt 0.90625 0.490315259 1
vt 0.875 0.490315259 0.99999994
vt 0.84375 0.490315259 1
vt 0.875 0.448648632 0.99999994
vt 0.875 0.490315259 0.99999994
vt 0.8125 0.490315259 1
vt 0.84375 0.448648632 1
vt 0.84375 0.490315259 1
vt 0.78125 0.490315259 1
vt 0.8125 0.448648632 1
vt 0.8125 0.490315259 1
vt 0.78125 0.490315259 1
vt 0.75 0.448648632 1
vt 0.78125 0.448648632 1
vt 0.75 0.448648632 1
vt 0.78125 0.490315259 1
vt 0.75 0.490315259 1
vt 0.8125 0.448648632 1
vt 0.78125 0.490315259 1
vt 0.78125 0.448648632 1
vt 0.84375 0.448648632 1
vt 0.8125 0.490315259 1
vt 0.8125 0.448648632 1
vt 0.875 0.448648632 0.99999994
vt 0.84375 0.490315259 1
vt 0.84375 0.448648632 1
vt 0.90625 0.490315259 1
vt 0.875 0.448648632 0.99999994
vt 0.90625 0.448648632 1
vt 0.9375 0.448648632 1
vt 0.90625 0.490315259 1
vt 0.90625 0.448648632 1
vt 0.96875 0.448648632 0.99999994
vt 0.9375 0.490315259 1
vt 0.9375 0.448648632 1
vt 1 0.448648632 1
vt 0.96875 0.490315259 0.99999994
vt 0.96875 0.448648632 0.99999994
vt 0.897932768 0.397932738 0
vt 0.882903993 0.416245341 0
vt 0.983383715 0 0
vt 0.897932768 0.397932738 0
vt 0.983383715 0 0
vt 0.916245341 0.382903993 0
vt 0.916245341 0.382903993 0
vt 0.983383715 0 0
vt 0.937137961 0.371736646 0
vt 0.937137961 0.371736646 0
vt 0.983383715 0 0
vt 0.959807873 0.364859819 0
vt 0.959807873 0.364859819 0
vt 0.983383715 0 0
vt 0.983383715 0.362537801 0
vt 0.983383715 0 0
vt 0.882903993 0.416245341 0
vt 0.871736646 0.437137991 0
vt 0.983383715 0 0
vt 0.871736646 0.437137991 0
vt 0.864859819 0.459807843 0
vt 0.983383715 0 0
vt 0.864859819 0.459807843 0
vt 0.5 0.483383715 0
vt 0.5 0.483383715 0
vt 0.864859819 0.459807843 0
vt 0.862537801 0.483383715 0
vt 0 0.546827793 0
vt 0.362537801 0.577039242 0
vt 0 0.577039242 0
vt 0.483383715 0.593655586 0
vt 0.120845929 0.623867095 0
vt 0.120845929 0.593655586 0
vt 0 0 0
vt 0.362537801 0 0
vt 0 0.483383715 0
vt 0 0.483383715 0
vt 0.362537801 0 0
vt 0.36485979 0.0235758685 0
vt 0 0.483383715 0
vt 0.36485979 0.0235758685 0
vt 0.371736646 0.0462457165 0
vt 0 0.483383715 0
vt 0.371736646 0.0462457165 0
vt 0.483383715 0.483383715 0
vt 0.483383715 0.483383715 0
vt 0.371736646 0.0462457165 0
vt 0.382903993 0.0671383888 0
vt 0.483383715 0.483383715 0
vt 0.382903993 0.0671383888 0
vt 0.397932738 0.0854509845 0
vt 0.483383715 0.483383715 0
vt 0.397932738 0.0854509845 0
vt 0.416245282 0.100479707 0
vt 0.483383715 0.483383715 0
vt 0.416245282 0.100479707 0
vt 0.437137961 0.111647077 0
vt 0.483383715 0.483383715 0
vt 0.437137961 0.111647077 0
vt 0.459807843 0.118523903 0
vt 0.483383715 0.530211508 0
vt 0 0.5 0
vt 0.483383715 0.5 0
vt 0.483383715 0.670694888 0
vt 0 0.640483379 0
vt 0.483383715 0.640483379 0
vn 0 0 -1
vn 0 0 -1
vn 0 0 -1
vn -1 0 0
vn -1 0 0
vn -1 0 0
vn 0 1 0
vn 0 1 0
vn 0 1 0
vn 1 0 0
vn 1 0 0
vn 1 0 0
vn 0 0 1
vn 0 0 1
vn 0 0 1
vn 0 -0.99999994 0
vn 0 -1 0
vn 0 -1 0
vn 0.195090339 0 0.98078531
vn 0.09801732 0 0.99518472
vn 0.09801732 0 0.99518472
vn 0.382683426 0 0.923879564
vn 0.195090353 0 0.98078531
vn 0.195090339 0 0.98078531
vn 0.555570185 0 0.831469655
vn 0.382683426 0 0.923879564
vn 0.382683426 0 0.923879564
vn 0.707106888 0 0.707106709
vn 0.555570185 0 0.831469655
vn 0.707106888 0 0.70710665
vn 0.831469715 0 0.555570066
vn 0.707106888 0 0.707106709
vn 0.707106888 0 0.70710665
vn 0.923879504 0 0.382683575
vn 0.831469715 0 0.555570066
vn 0.831469715 0 0.555570066
vn 0.98078531 0 0.195090204
vn 0.923879504 0 0.382683605
vn 0.923879504 0 0.382683575
vn 0.98078531 0 0.195090204
vn 0.995184779 0 0.0980167091
vn 0.98078531 0 0.195090175
vn 0.995184779 0 0.0980167091
vn 0.98078531 0 0.195090204
vn 0.995184779 -0 0.0980167016
vn 0.923879504 0 0.382683605
vn 0.98078531 0 0.195090204
vn 0.98078531 0 0.195090175
vn 0.831469715 0 0.555570066
vn 0.923879504 0 0.382683575
vn 0.923879504 0 0.382683605
vn 0.707106888 0 0.707106709
vn 0.831469715 0 0.555570066
vn 0.831469715 0 0.555570066
vn 0.555570185 0 0.831469655
vn 0.707106888 0 0.707106709
vn 0.555570185 0 0.831469655
vn 0.382683426 0 0.923879564
vn 0.555570185 0 0.831469655
vn 0.555570185 0 0.831469655
vn 0.195090353 0 0.98078531
vn 0.382683426 0 0.923879564
vn 0.382683426 0 0.923879564
vn 0.09801732 0 0.99518472
vn 0.195090339 0 0.98078531
vn 0.195090353 0 0.98078531
vn 0 -1 0
vn 0 -1 0
vn 0 -0.99999994 0
vn 0 -1 0
vn 0 -0.99999994 0
vn 0 -0.99999994 0
vn 0 -0.99999994 0
vn 0 -0.99999994 0
vn 0 -1 0
vn 0 -1 0
vn 0 -0.99999994 0
vn 0 -1 0
vn 0 -1 0
vn 0 -0.99999994 0
vn 0 -1 0
vn 0 -0.99999994 0
vn 0 -1 0
vn 0 -1 0
vn 0 -0.99999994 0
vn 0 -1 0
vn 0 -0.99999994 0
vn 0 -0.99999994 0
vn 0 -0.99999994 0
vn 0 -1 0
vn 0 -1 0
vn 0 -0.99999994 0
vn 0 -1 0
vn 0 0 1
vn 0 0 1
vn 0 0 1
vn 1 0 0
vn 1 0 0
vn 1 0 0
vn 0 1 0
vn 0 1 0
vn 0 0.99999994 0
vn 0 0.99999994 0
vn 0 1 0
vn 0 1 0
vn 0 0.99999994 0
vn 0 1 0
vn 0 1 0
vn 0 0.99999994 0
vn 0 1 0
vn 0 1 0
vn 0 1 0
vn 0 1 0
vn 0 1 0
vn 0 1 0
vn 0 1 0
vn 0 1 0
vn 0 1 0
vn 0 1 0
vn 0 0.99999994 0
vn 0 1 0
vn 0 0.99999994 0
vn 0 1 0
vn 0 1 0
vn 0 1 0
vn 0 1 0
vn -1 0 0
vn -1 0 0
vn -1 0 0
vn 0 0 -1
vn 0 0 -1
vn 0 0 -1
g 
f 1/1/1 3/2/2 2/3/3
f 4/4/4 5/5/5 3/6/6
f 2/7/7 8/8/8 7/9/9
f 7/10/10 1/11/11 2/12/12
f 15/13/13 6/14/14 17/15/15
f 1/16/16 6/17/17 4/18/18
f 8/19/19 16/20/20 7/21/21
f 9/22/22 21/23/23 8/24/24
f 10/25/25 20/26/26 9/27/27
f 18/28/28 10/29/29 11/30/30
f 12/31/31 18/32/32 11/33/33
f 13/34/34 24/35/35 12/36/36
f 14/37/37 23/38/38 13/39/39
f 14/40/40 17/41/41 22/42/42
f 17/43/43 14/44/44 15/45/45
f 23/46/46 14/47/47 22/48/48
f 24/49/49 13/50/50 23/51/51
f 18/52/52 12/53/53 24/54/54
f 10/55/55 18/56/56 19/57/57
f 20/58/58 10/59/59 19/60/60
f 21/61/61 9/62/62 20/63/63
f 16/64/64 8/65/65 21/66/66
f 18/67/67 24/68/68 1/69/69
f 18/70/70 1/71/71 19/72/72
f 19/73/73 1/74/74 20/75/75
f 20/76/76 1/77/77 21/78/78
f 21/79/79 1/80/80 16/81/81
f 1/82/82 24/83/83 23/84/84
f 1/85/85 23/86/86 22/87/87
f 1/88/88 22/89/89 6/90/90
f 6/91/91 22/92/92 17/93/93
f 6/94/94 15/95/95 5/96/96
f 1/97/97 7/98/98 16/99/99
f 5/100/100 15/101/101 3/102/102
f 3/103/103 15/104/104 14/105/105
f 3/106/106 14/107/107 13/108/108
f 3/109/109 13/110/110 2/111/111
f 2/112/112 13/113/113 12/114/114
f 2/115/115 12/116/116 11/117/117
f 2/118/118 11/119/119 10/120/120
f 2/121/121 10/122/122 9/123/123
f 2/124/124 9/125/125 8/126/126
f 5/127/127 4/128/128 6/129/129
f 3/130/130 1/131/131 4/132/132
