# File exported by Houdini 16.5.439 (www.sidefx.com)
# 12 points
# 60 vertices
# 20 primitives
# Bounds: [-2, -0.125, -2] to [2, 0.125, 2]
g 
v 2 -0.125 -2
v 2 0.125 -2
v -2 0.125 -2
v -2 -0.125 -2
v 2 -0.125 2
v 2 0.125 2
v -2 -0.125 -1
v 1 -0.125 -1
v 1 -0.125 2
v 1 0.125 -1
v -2 0.125 -1
v 1 0.125 2
vt 0 0.640483379 0
vt 0.483383715 0.670694888 0
vt 0 0.670694888 0
vt 0 0.593655586 0
vt 0.483383715 0.623867095 0
vt 0 0.623867095 0
vt 0.862537801 0.483383715 0
vt 0.983383715 0 0
vt 0.983383715 0.483383715 0
vt 0.362537801 0.362537801 0
vt 0 0.483383715 0
vt 0 0.362537801 0
vt 0.362537801 0.546827793 0
vt 0.483383715 0.577039242 0
vt 0.362537801 0.577039242 0
vt 0.120845929 0.5 0
vt 0 0.530211508 0
vt 0 0.5 0
vt 0.333333373 0.811324239 0
vt 0.648949862 0.837625623 0
vt 0.648949862 0.811324239 0
vt 3.50404692e-17 0.837625623 0
vt 0.315616488 0.811324239 0
vt 1.75202346e-17 0.811324239 0
vt 0.315616488 0.811324239 0
vt 3.50404692e-17 0.837625623 0
vt 0.315616488 0.837625623 0
vt 0.648949862 0.837625623 0
vt 0.333333373 0.811324239 0
vt 0.333333373 0.837625623 0
vt 0 0.530211508 0
vt 0.120845929 0.5 0
vt 0.120845929 0.530211508 0
vt 0.483383715 0.577039242 0
vt 0.362537801 0.546827793 0
vt 0.483383715 0.546827793 0
vt 0.362537801 0.362537801 0
vt 0.362537801 0 0
vt 0.483383715 0 0
vt 0.362537801 0.362537801 0
vt 0.483383715 0 0
vt 0.483383715 0.483383715 0
vt 0.362537801 0.362537801 0
vt 0.483383715 0.483383715 0
vt 0 0.483383715 0
vt 0.5 0 0
vt 0.983383715 0 0
vt 0.5 0.120845929 0
vt 0.5 0.120845929 0
vt 0.983383715 0 0
vt 0.862537801 0.120845929 0
vt 0.862537801 0.120845929 0
vt 0.983383715 0 0
vt 0.862537801 0.483383715 0
vt 0.483383715 0.623867095 0
vt 0 0.593655586 0
vt 0.483383715 0.593655586 0
vt 0.483383715 0.670694888 0
vt 0 0.640483379 0
vt 0.483383715 0.640483379 0
vn 0 0 -1
vn 0 0 -1
vn 0 0 -1
vn 1 0 0
vn 1 0 0
vn 1 0 0
vn 0 -1 0
vn 0 -1 0
vn 0 -1 0
vn 0 1 0
vn 0 1 0
vn 0 1 0
vn 0 0 1
vn 0 0 1
vn 0 0 1
vn -1 0 0
vn -1 0 0
vn -1 0 0
vn 0 0 1
vn 0 0 1
vn 0 0 1
vn -1 0 0
vn -1 0 0
vn -1 0 0
vn -1 0 0
vn -1 0 0
vn -1 0 0
vn 0 0 1
vn 0 0 1
vn 0 0 1
vn -1 0 0
vn -1 0 0
vn -1 0 0
vn 0 0 1
vn 0 0 1
vn 0 0 1
vn 0 1 0
vn 0 1 0
vn 0 1 0
vn 0 1 0
vn 0 1 0
vn 0 1 0
vn 0 1 0
vn 0 1 0
vn 0 1 0
vn 0 -1 0
vn 0 -1 0
vn 0 -1 0
vn 0 -1 0
vn 0 -1 0
vn 0 -1 0
vn 0 -1 0
vn 0 -1 0
vn 0 -1 0
vn 1 0 0
vn 1 0 0
vn 1 0 0
vn 0 0 -1
vn 0 0 -1
vn 0 0 -1
g 
f 1/1/1 3/2/2 2/3/3
f 5/4/4 2/5/5 6/6/6
f 9/7/7 1/8/8 5/9/9
f 10/10/10 3/11/11 11/12/12
f 9/13/13 6/14/14 12/15/15
f 7/16/16 3/17/17 4/18/18
f 8/19/19 11/20/20 7/21/21
f 12/22/22 8/23/23 9/24/24
f 8/25/25 12/26/26 10/27/27
f 11/28/28 8/29/29 10/30/30
f 3/31/31 7/32/32 11/33/33
f 6/34/34 9/35/35 5/36/36
f 10/37/37 12/38/38 6/39/39
f 10/40/40 6/41/41 2/42/42
f 10/43/43 2/44/44 3/45/45
f 4/46/46 1/47/47 7/48/48
f 7/49/49 1/50/50 8/51/51
f 8/52/52 1/53/53 9/54/54
f 2/55/55 5/56/56 1/57/57
f 3/58/58 1/59/59 4/60/60
