# File exported by Houdini 16.5.439 (www.sidefx.com)
# 52 points
# 200 vertices
# 50 primitives
# Bounds: [-0.849144459, -0.85086292, 0] to [0.849144459, 1.31134158e-07, 3]
g 
v -0.75 -6.55670789e-08 0
v -0.724444389 -0.194114298 0
v -0.649518967 -0.375000119 0
v -0.530330002 -0.530330181 0
v -0.37499994 -0.649519086 0
v -0.194114238 -0.724444389 0
v 8.94366003e-09 -0.75 0
v 0.194114596 -0.72444427 0
v 0.37499994 -0.649519086 0
v 0.530330241 -0.530329883 0
v 0.649518967 -0.375000119 0
v 0.724444389 -0.194114119 0
v 0.75 1.31134158e-07 0
v -0.75 -6.55670789e-08 3
v -0.724444389 -0.194114298 3
v -0.649518967 -0.375000119 3
v -0.530330002 -0.530330181 3
v -0.37499994 -0.649519086 3
v -0.194114238 -0.724444389 3
v 8.94366003e-09 -0.75 3
v 0.194114596 -0.72444427 3
v 0.37499994 -0.649519086 3
v 0.530330241 -0.530329883 3
v 0.649518967 -0.375000119 3
v 0.724444389 -0.194114119 3
v 0.75 1.31134158e-07 3
v -0.849144459 -0.0130526777 0
v -0.821870446 -0.220219553 0
v -0.821870446 -0.220219553 3
v -0.849144459 -0.0130526777 3
v -0.736868799 -0.425431579 0
v -0.736868799 -0.425431579 3
v -0.601650834 -0.601651013 0
v -0.601650834 -0.601651013 3
v -0.425431371 -0.736868918 0
v -0.425431371 -0.736868918 3
v -0.220219463 -0.821870446 0
v -0.220219463 -0.821870446 3
v 2.71349805e-08 -0.85086292 0
v 2.71349805e-08 -0.85086292 3
v 0.220219851 -0.821870327 0
v 0.220219851 -0.821870327 3
v 0.425431401 -0.736868918 0
v 0.425431401 -0.736868918 3
v 0.601651073 -0.601650715 0
v 0.601651073 -0.601650715 3
v 0.736868799 -0.425431579 0
v 0.736868799 -0.425431579 3
v 0.821870446 -0.220219359 0
v 0.821870446 -0.220219359 3
v 0.849144459 -0.0130524812 0
v 0.849144459 -0.0130524812 3
vt 0.999999881 0 0.75
vt 1 1.5 0.75
vt 0.916666746 1.5 0.75
vt 0.916666627 0 0.75000006
vt 0.916666627 0 0.75000006
vt 0.916666746 1.5 0.75
vt 0.833333254 1.5 0.74999994
vt 0.833333254 0 0.75
vt 0.833333254 0 0.75
vt 0.833333254 1.5 0.74999994
vt 0.75 1.5 0.74999994
vt 0.749999881 0 0.75000006
vt 0.749999881 0 0.75000006
vt 0.75 1.5 0.74999994
vt 0.666666627 1.5 0.74999994
vt 0.666666627 0 0.75000006
vt 0.666666627 0 0.75000006
vt 0.666666627 1.5 0.74999994
vt 0.583333254 1.5 0.74999994
vt 0.583333254 0 0.75000006
vt 0.583333254 0 0.75000006
vt 0.583333254 1.5 0.74999994
vt 0.5 1.5 0.74999994
vt 0.5 0 0.75000006
vt 0.5 0 0.75000006
vt 0.5 1.5 0.74999994
vt 0.416666508 1.5 0.74999994
vt 0.416666508 0 0.75000006
vt 0.416666508 0 0.75000006
vt 0.416666508 1.5 0.74999994
vt 0.333333373 1.5 0.74999994
vt 0.333333373 0 0.75000006
vt 0.333333373 0 0.75000006
vt 0.333333373 1.5 0.74999994
vt 0.249999881 1.5 0.74999994
vt 0.24999994 0 0.75
vt 0.24999994 0 0.75
vt 0.249999881 1.5 0.74999994
vt 0.166666746 1.5 0.74999994
vt 0.166666746 0 0.75
vt 0.166666746 0 0.75
vt 0.166666746 1.5 0.74999994
vt 0.0833332539 1.5 0.74999994
vt 0.0833332539 0 0.75
vt 0.0833332539 0 0.75
vt 0.0833332539 1.5 0.74999994
vt -5.96046448e-08 1.5 0.75
vt -5.96046448e-08 0 0.75
vt 0.999999881 0 0.75
vt 0.916666627 0 0.75000006
vt 0.916666746 1.5 0.75
vt 1 1.5 0.75
vt 0.916666627 0 0.75000006
vt 0.833333254 0 0.75
vt 0.833333254 1.5 0.74999994
vt 0.916666746 1.5 0.75
vt 0.833333254 0 0.75
vt 0.749999881 0 0.75000006
vt 0.75 1.5 0.74999994
vt 0.833333254 1.5 0.74999994
vt 0.749999881 0 0.75000006
vt 0.666666627 0 0.75000006
vt 0.666666627 1.5 0.74999994
vt 0.75 1.5 0.74999994
vt 0.666666627 0 0.75000006
vt 0.583333254 0 0.75000006
vt 0.583333254 1.5 0.74999994
vt 0.666666627 1.5 0.74999994
vt 0.583333254 0 0.75000006
vt 0.5 0 0.75000006
vt 0.5 1.5 0.74999994
vt 0.583333254 1.5 0.74999994
vt 0.5 0 0.75000006
vt 0.416666508 0 0.75000006
vt 0.416666508 1.5 0.74999994
vt 0.5 1.5 0.74999994
vt 0.416666508 0 0.75000006
vt 0.333333373 0 0.75000006
vt 0.333333373 1.5 0.74999994
vt 0.416666508 1.5 0.74999994
vt 0.333333373 0 0.75000006
vt 0.24999994 0 0.75
vt 0.249999881 1.5 0.74999994
vt 0.333333373 1.5 0.74999994
vt 0.24999994 0 0.75
vt 0.166666746 0 0.75
vt 0.166666746 1.5 0.74999994
vt 0.249999881 1.5 0.74999994
vt 0.166666746 0 0.75
vt 0.0833332539 0 0.75
vt 0.0833332539 1.5 0.74999994
vt 0.166666746 1.5 0.74999994
vt 0.0833332539 0 0.75
vt -5.96046448e-08 0 0.75
vt -5.96046448e-08 1.5 0.75
vt 0.0833332539 1.5 0.74999994
vt 0.525704503 0.573203921 0
vt 0.517303348 0.509390593 0
vt 0.549331307 0.500808775 0
vt 0.558297396 0.568912983 0
vt 0.517303348 0.509390593 0
vt 0.492672265 0.449926019 0
vt 0.521387756 0.433347106 0
vt 0.549331307 0.500808775 0
vt 0.492672265 0.449926019 0
vt 0.453489929 0.39886263 0
vt 0.476936042 0.375416517 0
vt 0.521387756 0.433347106 0
vt 0.453489929 0.39886263 0
vt 0.4024266 0.359680355 0
vt 0.419005454 0.330964833 0
vt 0.476936042 0.375416517 0
vt 0.4024266 0.359680355 0
vt 0.342961997 0.335049331 0
vt 0.351543874 0.303021371 0
vt 0.419005454 0.330964833 0
vt 0.342961997 0.335049331 0
vt 0.279148698 0.326648146 0
vt 0.279148698 0.29349035 0
vt 0.351543874 0.303021371 0
vt 0.279148698 0.326648146 0
vt 0.21533525 0.335049361 0
vt 0.206753373 0.303021401 0
vt 0.279148698 0.29349035 0
vt 0.21533525 0.335049361 0
vt 0.155870795 0.359680355 0
vt 0.139291897 0.330964833 0
vt 0.206753373 0.303021401 0
vt 0.155870795 0.359680355 0
vt 0.10480734 0.398862749 0
vt 0.0813612491 0.375416636 0
vt 0.139291897 0.330964833 0
vt 0.10480734 0.398862749 0
vt 0.0656251013 0.449926019 0
vt 0.0369096249 0.433347106 0
vt 0.0813612491 0.375416636 0
vt 0.0656251013 0.449926019 0
vt 0.0409940369 0.509390712 0
vt 0.00896608923 0.500808775 0
vt 0.0369096249 0.433347106 0
vt 0.0409940369 0.509390712 0
vt 0.0325928591 0.573203981 0
vt 0 0.568913102 0
vt 0.00896608923 0.500808775 0
vt 0.618443608 0.98622334 0
vt 0.618443608 0 0
vt 0.651036501 0 0
vt 0.651036501 0.98622334 0
vt 0.525704503 0.27971366 0
vt 0.517303348 0.215900317 0
vt 0.549331307 0.207318455 0
vt 0.558297396 0.275422722 0
vt 0.517303348 0.215900317 0
vt 0.492672265 0.156435668 0
vt 0.521387756 0.139856771 0
vt 0.549331307 0.207318455 0
vt 0.492672265 0.156435668 0
vt 0.453490019 0.105372384 0
vt 0.476936132 0.0819262937 0
vt 0.521387756 0.139856771 0
vt 0.453490019 0.105372384 0
vt 0.4024266 0.0661899969 0
vt 0.419005454 0.0374745131 0
vt 0.476936132 0.0819262937 0
vt 0.4024266 0.0661899969 0
vt 0.342962116 0.041559007 0
vt 0.351543993 0.00953105744 0
vt 0.419005454 0.0374745131 0
vt 0.342962116 0.041559007 0
vt 0.279148698 0.0331577882 0
vt 0.279148698 0 0
vt 0.351543993 0.00953105744 0
vt 0.279148698 0.0331577882 0
vt 0.215335369 0.041558966 0
vt 0.206753492 0.00953101832 0
vt 0.279148698 0 0
vt 0.215335369 0.041558966 0
vt 0.155870795 0.0661899969 0
vt 0.139291912 0.0374745131 0
vt 0.206753492 0.00953101832 0
vt 0.155870795 0.0661899969 0
vt 0.104807414 0.105372287 0
vt 0.0813613236 0.0819261968 0
vt 0.139291912 0.0374745131 0
vt 0.104807414 0.105372287 0
vt 0.0656251013 0.156435668 0
vt 0.0369096249 0.139856771 0
vt 0.0813613236 0.0819261968 0
vt 0.0656251013 0.156435668 0
vt 0.0409940369 0.215900272 0
vt 0.00896608923 0.207318395 0
vt 0.0369096249 0.139856771 0
vt 0.0409940369 0.215900272 0
vt 0.0325928591 0.279713601 0
vt 0 0.275422662 0
vt 0.00896608923 0.207318395 0
vt 0.604666889 0 0
vt 0.604666889 0.98622334 0
vt 0.572074056 0.98622334 0
vt 0.572074056 0 0
vn 0.991444886 0.130526125 0
vn 0.991444886 0.130526125 0
vn 0.965925753 0.258819133 0
vn 0.965925753 0.258819133 0
vn 0.965925753 0.258819133 0
vn 0.965925753 0.258819133 0
vn 0.866025329 0.500000119 0
vn 0.866025329 0.500000119 0
vn 0.866025329 0.500000119 0
vn 0.866025329 0.500000119 0
vn 0.707106709 0.707106769 0
vn 0.707106709 0.707106769 0
vn 0.707106709 0.707106769 0
vn 0.707106709 0.707106769 0
vn 0.49999994 0.866025448 0
vn 0.49999994 0.866025448 0
vn 0.49999994 0.866025448 0
vn 0.49999994 0.866025448 0
vn 0.258818984 0.965925813 0
vn 0.258818984 0.965925813 0
vn 0.258818984 0.965925813 0
vn 0.258818984 0.965925813 0
vn -1.86580536e-07 1 -0
vn -1.86580536e-07 1 -0
vn -1.86580536e-07 1 -0
vn -1.86580536e-07 1 -0
vn -0.258819252 0.965925753 -0
vn -0.258819252 0.965925753 -0
vn -0.258819252 0.965925753 -0
vn -0.258819252 0.965925753 -0
vn -0.500000179 0.866025329 -0
vn -0.500000179 0.866025329 -0
vn -0.500000179 0.866025329 -0
vn -0.500000179 0.866025329 -0
vn -0.707106829 0.70710665 -0
vn -0.707106829 0.70710665 -0
vn -0.707106829 0.70710665 -0
vn -0.707106829 0.70710665 -0
vn -0.866025388 0.49999997 -0
vn -0.866025388 0.49999997 -0
vn -0.866025388 0.49999997 -0
vn -0.866025388 0.49999997 -0
vn -0.965925813 0.258818984 -0
vn -0.965925813 0.258818984 -0
vn -0.965925813 0.258818984 -0
vn -0.965925813 0.258818984 -0
vn -0.991444886 0.130526125 -0
vn -0.991444886 0.130526125 -0
vn -0.991444886 -0.130526096 0
vn -0.965925872 -0.258819103 0
vn -0.965925872 -0.258819103 0
vn -0.991444886 -0.130526096 0
vn -0.965925872 -0.258819103 0
vn -0.866025329 -0.500000179 0
vn -0.866025329 -0.500000179 0
vn -0.965925872 -0.258819103 0
vn -0.866025329 -0.500000179 0
vn -0.70710665 -0.707106829 0
vn -0.70710665 -0.707106829 0
vn -0.866025329 -0.500000179 0
vn -0.70710665 -0.707106829 0
vn -0.499999881 -0.866025448 0
vn -0.499999881 -0.866025448 0
vn -0.70710665 -0.707106829 0
vn -0.499999881 -0.866025448 0
vn -0.258819044 -0.965925813 0
vn -0.258819044 -0.965925813 0
vn -0.499999881 -0.866025448 0
vn -0.258819044 -0.965925813 0
vn 1.67444071e-07 -1 -0
vn 1.67444071e-07 -1 -0
vn -0.258819044 -0.965925813 0
vn 1.67444071e-07 -1 -0
vn 0.258819282 -0.965925753 -0
vn 0.258819282 -0.965925753 -0
vn 1.67444071e-07 -1 -0
vn 0.258819282 -0.965925753 -0
vn 0.500000179 -0.866025329 -0
vn 0.500000179 -0.866025329 -0
vn 0.258819282 -0.965925753 -0
vn 0.500000179 -0.866025329 -0
vn 0.707106829 -0.707106709 -0
vn 0.707106829 -0.707106709 -0
vn 0.500000179 -0.866025329 -0
vn 0.707106829 -0.707106709 -0
vn 0.866025448 -0.49999997 -0
vn 0.866025448 -0.49999997 -0
vn 0.707106829 -0.707106709 -0
vn 0.866025448 -0.49999997 -0
vn 0.965925813 -0.258818924 -0
vn 0.965925813 -0.258818924 -0
vn 0.866025448 -0.49999997 -0
vn 0.965925813 -0.258818924 -0
vn 0.991444886 -0.130526096 -0
vn 0.991444886 -0.130526096 -0
vn 0.965925813 -0.258818924 -0
vn -0 -0 -1
vn -0 0 -1
vn 0 -0 -1
vn -0 -0 -1
vn -0 0 -1
vn -0 0 -1
vn 0 -0 -1
vn 0 -0 -1
vn -0 0 -1
vn -0 0 -0.99999994
vn 0 -0 -1
vn 0 -0 -1
vn -0 0 -0.99999994
vn -0 0 -1
vn 0 -0 -1
vn 0 -0 -1
vn -0 0 -1
vn -0 0 -1
vn 0 -0 -1
vn 0 -0 -1
vn -0 0 -1
vn -0 -0 -0.99999994
vn 0 0 -1
vn 0 -0 -1
vn -0 -0 -0.99999994
vn -0 -0 -1
vn 0 0 -1
vn 0 0 -1
vn -0 -0 -1
vn -0 -0 -0.99999994
vn 0 0 -1
vn 0 0 -1
vn -0 -0 -0.99999994
vn -0 -0 -1
vn 0 0 -1
vn 0 0 -1
vn -0 -0 -1
vn -0 -0 -1
vn 0 0 -1
vn 0 0 -1
vn -0 -0 -1
vn -0 -0 -0.99999994
vn 0 0 -1
vn 0 0 -1
vn -0 -0 -0.99999994
vn -0 -0 -1
vn -0 0 -1
vn 0 0 -1
vn 0.13052617 0.991444886 0
vn 0.13052617 0.991444886 0
vn 0.13052617 0.991444886 -0
vn 0.13052617 0.991444886 -0
vn -0 -0 1
vn -0 -0 0.99999994
vn 0 0 1
vn -0 0 1
vn -0 -0 0.99999994
vn -0 -0 1
vn 0 0 1
vn 0 0 1
vn -0 -0 1
vn -0 -0 1
vn 0 0 1
vn 0 0 1
vn -0 -0 1
vn -0 -0 0.99999994
vn 0 0 1
vn 0 0 1
vn -0 -0 0.99999994
vn -0 -0 1
vn 0 0 1
vn 0 0 1
vn -0 -0 1
vn -0 -0 0.99999994
vn 0 0 1
vn 0 0 1
vn -0 -0 0.99999994
vn -0 0 1
vn 0 -0 1
vn 0 0 1
vn -0 0 1
vn -0 0 1
vn 0 -0 1
vn 0 -0 1
vn -0 0 1
vn -0 0 0.99999994
vn 0 -0 1
vn 0 -0 1
vn -0 0 0.99999994
vn -0 0 1
vn 0 -0 1
vn 0 -0 1
vn -0 0 1
vn -0 0 1
vn 0 -0 1
vn 0 -0 1
vn -0 0 1
vn -0 -0 1
vn -0 -0 1
vn 0 -0 1
vn -0.13052617 0.991444886 -0
vn -0.13052617 0.991444886 -0
vn -0.13052617 0.991444886 -0
vn -0.13052617 0.991444886 -0
g 
f 1/1/1 14/2/2 15/3/3 2/4/4
f 2/5/5 15/6/6 16/7/7 3/8/8
f 3/9/9 16/10/10 17/11/11 4/12/12
f 4/13/13 17/14/14 18/15/15 5/16/16
f 5/17/17 18/18/18 19/19/19 6/20/20
f 6/21/21 19/22/22 20/23/23 7/24/24
f 7/25/25 20/26/26 21/27/27 8/28/28
f 8/29/29 21/30/30 22/31/31 9/32/32
f 9/33/33 22/34/34 23/35/35 10/36/36
f 10/37/37 23/38/38 24/39/39 11/40/40
f 11/41/41 24/42/42 25/43/43 12/44/44
f 12/45/45 25/46/46 26/47/47 13/48/48
f 27/49/49 28/50/50 29/51/51 30/52/52
f 28/53/53 31/54/54 32/55/55 29/56/56
f 31/57/57 33/58/58 34/59/59 32/60/60
f 33/61/61 35/62/62 36/63/63 34/64/64
f 35/65/65 37/66/66 38/67/67 36/68/68
f 37/69/69 39/70/70 40/71/71 38/72/72
f 39/73/73 41/74/74 42/75/75 40/76/76
f 41/77/77 43/78/78 44/79/79 42/80/80
f 43/81/81 45/82/82 46/83/83 44/84/84
f 45/85/85 47/86/86 48/87/87 46/88/88
f 47/89/89 49/90/90 50/91/91 48/92/92
f 49/93/93 51/94/94 52/95/95 50/96/96
f 1/97/97 2/98/98 28/99/99 27/100/100
f 2/101/101 3/102/102 31/103/103 28/104/104
f 3/105/105 4/106/106 33/107/107 31/108/108
f 4/109/109 5/110/110 35/111/111 33/112/112
f 5/113/113 6/114/114 37/115/115 35/116/116
f 6/117/117 7/118/118 39/119/119 37/120/120
f 7/121/121 8/122/122 41/123/123 39/124/124
f 8/125/125 9/126/126 43/127/127 41/128/128
f 9/129/129 10/130/130 45/131/131 43/132/132
f 10/133/133 11/134/134 47/135/135 45/136/136
f 11/137/137 12/138/138 49/139/139 47/140/140
f 12/141/141 13/142/142 51/143/143 49/144/144
f 13/145/145 26/146/146 52/147/147 51/148/148
f 26/149/149 25/150/150 50/151/151 52/152/152
f 25/153/153 24/154/154 48/155/155 50/156/156
f 24/157/157 23/158/158 46/159/159 48/160/160
f 23/161/161 22/162/162 44/163/163 46/164/164
f 22/165/165 21/166/166 42/167/167 44/168/168
f 21/169/169 20/170/170 40/171/171 42/172/172
f 20/173/173 19/174/174 38/175/175 40/176/176
f 19/177/177 18/178/178 36/179/179 38/180/180
f 18/181/181 17/182/182 34/183/183 36/184/184
f 17/185/185 16/186/186 32/187/187 34/188/188
f 16/189/189 15/190/190 29/191/191 32/192/192
f 15/193/193 14/194/194 30/195/195 29/196/196
f 14/197/197 1/198/198 27/199/199 30/200/200
